<?xml version="1.0" encoding="UTF-8"?> <svg xmlns="http://www.w3.org/2000/svg" width="621" height="560" viewBox="0 0 621 560" fill="none"><g clip-path="url(#clip0_1010_9475)"><g clip-path="url(#clip1_1010_9475)"><path d="M471.03 154.88H340.31V237.81H471.03V154.88Z" fill="#F4F9FF" stroke="black" stroke-width="0.75" stroke-miterlimit="10"></path><path d="M584.33 154.88H471.03V87.97L543.59 87.97C566.07 87.97 584.32 106.22 584.32 128.7V154.88H584.33Z" fill="#FDE5E0" stroke="black" stroke-width="0.75" stroke-miterlimit="10"></path><path d="M471.03 237.38H340.37V313.87H471.03V237.38Z" fill="#E5F8EA" stroke="black" stroke-width="0.75" stroke-miterlimit="10"></path><path d="M416.86 237.38V276.7C430.76 290.49 449.9 299.02 471.03 299.02V237.38H416.86Z" fill="black"></path><mask id="mask0_1010_9475" style="mask-type:alpha" maskUnits="userSpaceOnUse" x="382" y="237" width="90" height="73"><path d="M471.04 237.38H382.17V309.2H471.04V237.38Z" fill="black"></path></mask><g mask="url(#mask0_1010_9475)"><path d="M467.76 299.13C507.21 299.13 539.19 267.15 539.19 227.7C539.19 188.25 507.21 156.27 467.76 156.27C428.31 156.27 396.33 188.25 396.33 227.7C396.33 267.15 428.31 299.13 467.76 299.13Z" fill="black"></path></g><path d="M471.03 154.88C433.91 154.88 403.81 184.97 403.81 222.1C403.81 259.23 433.9 289.32 471.03 289.32" fill="#F19B58"></path><path d="M471.03 154.88C433.91 154.88 403.81 184.97 403.81 222.1C403.81 259.23 433.9 289.32 471.03 289.32" stroke="black" stroke-width="0.75" stroke-miterlimit="10"></path><path d="M471.03 289.32C508.155 289.32 538.25 259.225 538.25 222.1C538.25 184.975 508.155 154.88 471.03 154.88C433.905 154.88 403.81 184.975 403.81 222.1C403.81 259.225 433.905 289.32 471.03 289.32Z" fill="#FF8B74" stroke="black" stroke-width="0.75" stroke-miterlimit="10"></path><path d="M471.03 289.32C508.155 289.32 538.25 259.225 538.25 222.1C538.25 184.975 508.155 154.88 471.03 154.88C433.905 154.88 403.81 184.975 403.81 222.1C403.81 259.225 433.905 289.32 471.03 289.32Z" fill="#B4E2F5" stroke="black" stroke-width="0.75" stroke-miterlimit="10"></path><path d="M470.87 262.05C492.934 262.05 510.82 244.164 510.82 222.1C510.82 200.036 492.934 182.15 470.87 182.15C448.806 182.15 430.92 200.036 430.92 222.1C430.92 244.164 448.806 262.05 470.87 262.05Z" fill="white" stroke="black" stroke-width="0.75" stroke-miterlimit="10"></path><path d="M474.5 216.45L469.81 215.95L469.87 217.41L467.76 216.47L467.8 230.65L469.47 233.31L467.82 235.71L469.48 238.36L467.83 240.26V242.79L469.5 244.19L467.85 245.95V248.83L470.78 252.88C470.98 253.16 471.4 253.16 471.6 252.88L474.6 248.8V245.92L472.93 244.17L474.58 242.76V240.23L472.91 238.34L474.56 235.68L472.9 233.29L474.55 230.62L474.51 216.44L474.5 216.45Z" fill="#939393" stroke="black" stroke-width="0.75" stroke-miterlimit="10"></path><path d="M479.49 221.5C476.83 223.19 473.74 224.02 470.54 223.92C467.37 223.82 464.44 222.78 462.05 221.08C459.4 219.2 457.58 216.36 456.77 213.22C456.75 213.16 456.74 213.1 456.72 213.03C456.12 210.67 455.82 208.24 455.81 205.8L455.79 199.94C455.79 199.03 455.89 198.11 456.17 197.24C456.63 195.79 457.43 194.53 458.54 193.51C458.92 193.15 459.35 192.83 459.8 192.54C460.28 192.24 460.79 191.98 461.32 191.77C462.36 191.36 463.46 191.15 464.59 191.15L477.41 191.11C480.88 191.1 484.05 193.08 485.48 196.17C486 197.29 486.26 198.47 486.26 199.69L486.28 205.83C486.28 208.3 485.99 210.76 485.39 213.15C485.39 213.17 485.39 213.18 485.38 213.2C484.59 216.34 482.79 219.18 480.15 221.06C479.93 221.21 479.71 221.36 479.49 221.51V221.5Z" fill="#595959" stroke="black" stroke-width="0.75" stroke-miterlimit="10"></path><path d="M461.77 199.76L461.8 209.25C461.81 213.86 465.71 217.78 470.72 217.93C475.98 218.1 480.32 214.2 480.3 209.4L480.27 199.7C480.27 198.26 478.99 197.09 477.42 197.1L464.6 197.14C463.03 197.14 461.76 198.32 461.77 199.76Z" fill="#B6B6B6" stroke="black" stroke-width="0.75" stroke-miterlimit="10"></path><path d="M477.43 197.1L464.61 197.14C463.04 197.14 461.77 198.32 461.78 199.76V202.96L480.29 202.9V199.7C480.28 198.26 479 197.09 477.43 197.1Z" fill="#B6B6B6" stroke="black" stroke-width="0.75" stroke-miterlimit="10"></path><path d="M461.78 202.96L461.8 209.25C461.8 209.48 461.81 209.7 461.83 209.92L480.29 209.86C480.29 209.71 480.3 209.55 480.3 209.4L480.28 202.9L461.78 202.96Z" fill="#B6B6B6" stroke="black" stroke-width="0.75" stroke-miterlimit="10"></path><path d="M461.77 199.76L461.8 209.25C461.81 213.86 465.71 217.78 470.72 217.93C475.98 218.1 480.32 214.2 480.3 209.4L480.27 199.7C480.27 198.26 478.99 197.09 477.42 197.1L464.6 197.14C463.03 197.14 461.76 198.32 461.77 199.76Z" fill="#595959" stroke="black" stroke-width="0.75" stroke-miterlimit="10"></path><path d="M477.43 197.1L464.61 197.14C463.04 197.14 461.77 198.32 461.78 199.76V202.96L480.29 202.9V199.7C480.28 198.26 479 197.09 477.43 197.1Z" fill="#595959" stroke="black" stroke-width="0.75" stroke-miterlimit="10"></path><path d="M461.78 202.96L461.8 209.25C461.8 209.48 461.81 209.7 461.83 209.92L480.29 209.86C480.29 209.71 480.3 209.55 480.3 209.4L480.28 202.9L461.78 202.96Z" fill="black" stroke="black" stroke-width="0.75" stroke-miterlimit="10"></path><path d="M35.6699 472.03H584.33" stroke="black" stroke-width="0.75" stroke-miterlimit="10"></path><path d="M471.17 230.53C471.954 230.53 472.59 229.894 472.59 229.11C472.59 228.326 471.954 227.69 471.17 227.69C470.386 227.69 469.75 228.326 469.75 229.11C469.75 229.894 470.386 230.53 471.17 230.53Z" fill="black" stroke="black" stroke-width="0.75" stroke-miterlimit="10"></path><path d="M471.17 385.86V229.11" stroke="black" stroke-width="0.75" stroke-miterlimit="10"></path><path d="M443.78 366.88H380.93V429.73C380.93 395.02 409.07 366.88 443.78 366.88Z" fill="black" stroke="black" stroke-width="0.75" stroke-miterlimit="10"></path><path d="M138.46 304.66L129.25 302.7C134.38 308.69 133.81 321.84 127.96 327.13L101.28 352.33L152.71 318.74L155.07 310.13L138.45 304.65L138.46 304.66Z" fill="black" stroke="black" stroke-width="0.75" stroke-linejoin="bevel"></path><path d="M100.14 393.58V352.34L144.18 312.35C138.39 308.8 129.25 302.71 129.25 302.71L169.47 294.42C172.39 293.82 175.34 293.42 178.32 293.24L186.81 292.72C189.84 292.35 192.91 292.15 195.99 292.15H338.97C350.8 292.15 362.47 294.94 373.02 300.29L450.82 343.9L543.99 352.97C548.57 353.44 552.96 355.05 556.76 357.66L570.45 367.06L574.1 382.14L582.15 391.15C583.55 392.72 584.33 394.75 584.33 396.85V418.92C584.33 422.25 582.4 425.28 579.37 426.69L534.34 444.4H117.93L92.14 430.17V405.27L100.14 393.59V393.58Z" fill="#F4F9FF" stroke="black" stroke-width="0.75" stroke-miterlimit="10"></path><path d="M574.96 405C571.17 405 567.79 407.38 566.51 410.95L560.49 427.76H556.13L562.64 409.59C563.92 406.02 567.3 403.64 571.09 403.64H584.33V405.01H574.96V405Z" fill="black" stroke="black" stroke-width="0.75" stroke-miterlimit="10"></path><path d="M109.32 403.63L117.46 411.77H161.27L160.13 424.38H581.21C581.56 425.34 580.55 426.13 579.38 426.68L534.35 444.39H117.93L108.29 439.07L92.14 430.16V405.26L93.04 403.95L93.26 403.63H109.33H109.32Z" fill="#85D0F0" stroke="black" stroke-width="0.75" stroke-miterlimit="10"></path><path d="M152.72 334.77L166.45 319.43C178.35 309.75 193.23 304.46 208.58 304.46H334.41C344.76 304.46 355.1 306.93 364.33 311.61L438.6 353.43H213.66C201.77 353.43 190 350.98 179.09 346.24L152.71 334.77H152.72Z" fill="white" stroke="black" stroke-width="0.75" stroke-miterlimit="10"></path><path d="M403.89 353.44V335.84L438.59 353.44H403.89Z" fill="#D5C9FD" stroke="black" stroke-width="0.75" stroke-miterlimit="10"></path><path d="M296.94 353.44H275.62L269.91 304.47H288.07L296.94 353.44Z" fill="#F4F9FF" stroke="black" stroke-width="0.75" stroke-miterlimit="10"></path><path d="M570.45 367.05L535.41 365.27C532.83 365.14 531.58 368.39 533.59 370.02L539.65 374.93C545.06 379.31 551.79 381.76 558.75 381.88L574.1 382.14L570.45 367.06V367.05Z" fill="white" stroke="black" stroke-width="0.75" stroke-miterlimit="10"></path><path d="M123 372.35H100.14V352.34H134.78L123 372.35Z" fill="#FFC5AA" stroke="black" stroke-width="0.75" stroke-miterlimit="10"></path><path d="M417.12 353.44L415.74 346.45C415.11 343.23 413.02 340.48 410.09 338.99L404.8 336.31C403.3 335.55 401.65 335.16 399.97 335.16H394.03C391.42 335.16 388.9 336.12 386.95 337.85C384.67 339.88 383.36 342.78 383.36 345.83V353.44H417.11H417.12Z" fill="#F4F9FF" stroke="black" stroke-width="0.75" stroke-miterlimit="10"></path><path d="M312.71 363.18H337.92L338.29 367.88H313.08L312.71 363.18Z" fill="#F4F9FF" stroke="black" stroke-width="0.75" stroke-miterlimit="10"></path><path d="M208.67 363.18H233.88L234.25 367.88H209.04L208.67 363.18Z" fill="#F4F9FF" stroke="black" stroke-width="0.75" stroke-miterlimit="10"></path><path d="M201.6 399.11L194.16 351.21" stroke="black" stroke-width="0.75" stroke-miterlimit="10"></path><path d="M169.02 341.87L152.71 334.78L166.44 319.44C173.85 313.41 182.47 309.07 191.63 306.67L169.02 341.87Z" fill="#F4F9FF"></path><path d="M169.02 341.87L152.71 334.78L166.44 319.44C173.85 313.41 182.47 309.07 191.63 306.67L169.02 341.87" stroke="black" stroke-width="0.75" stroke-miterlimit="10"></path><path d="M440.84 444.39L446.18 414.2C449.01 398.23 462.89 386.58 479.11 386.58H496.07C512.29 386.58 526.18 398.22 529 414.2L534.34 444.39H440.84Z" fill="black" stroke="black" stroke-width="0.75" stroke-miterlimit="10"></path><path d="M138.46 444.39L143.8 414.2C146.63 398.23 160.51 386.58 176.73 386.58H193.69C209.91 386.58 223.8 398.22 226.62 414.2L231.96 444.39H138.46Z" fill="black" stroke="black" stroke-width="0.75" stroke-miterlimit="10"></path><path d="M223.66 405.38H408.51" stroke="black" stroke-width="0.75" stroke-miterlimit="10"></path><path d="M487.59 472.03C509.256 472.03 526.82 454.466 526.82 432.8C526.82 411.134 509.256 393.57 487.59 393.57C465.924 393.57 448.36 411.134 448.36 432.8C448.36 454.466 465.924 472.03 487.59 472.03Z" fill="#939393" stroke="black" stroke-width="0.75" stroke-miterlimit="10"></path><path d="M487.59 456.74C500.812 456.74 511.53 446.022 511.53 432.8C511.53 419.578 500.812 408.86 487.59 408.86C474.368 408.86 463.65 419.578 463.65 432.8C463.65 446.022 474.368 456.74 487.59 456.74Z" fill="#E7F3FF" stroke="black" stroke-width="0.75" stroke-miterlimit="10"></path><path d="M487.59 444.38C493.985 444.38 499.17 439.195 499.17 432.8C499.17 426.405 493.985 421.22 487.59 421.22C481.195 421.22 476.01 426.405 476.01 432.8C476.01 439.195 481.195 444.38 487.59 444.38Z" fill="#85D0F0" stroke="black" stroke-width="0.75" stroke-miterlimit="10"></path><path d="M185.21 472.03C206.876 472.03 224.44 454.466 224.44 432.8C224.44 411.134 206.876 393.57 185.21 393.57C163.544 393.57 145.98 411.134 145.98 432.8C145.98 454.466 163.544 472.03 185.21 472.03Z" fill="#939393" stroke="black" stroke-width="0.75" stroke-miterlimit="10"></path><path d="M185.21 456.74C198.432 456.74 209.15 446.022 209.15 432.8C209.15 419.578 198.432 408.86 185.21 408.86C171.988 408.86 161.27 419.578 161.27 432.8C161.27 446.022 171.988 456.74 185.21 456.74Z" fill="#E7F3FF" stroke="black" stroke-width="0.75" stroke-miterlimit="10"></path><path d="M185.21 444.38C191.605 444.38 196.79 439.195 196.79 432.8C196.79 426.405 191.605 421.22 185.21 421.22C178.815 421.22 173.63 426.405 173.63 432.8C173.63 439.195 178.815 444.38 185.21 444.38Z" fill="#85D0F0" stroke="black" stroke-width="0.75" stroke-miterlimit="10"></path><mask id="mask1_1010_9475" style="mask-type:alpha" maskUnits="userSpaceOnUse" x="-12" y="126" width="371" height="347"><path d="M358.11 126.08H-11.3701V472.03H358.11V126.08Z" fill="black"></path></mask><g mask="url(#mask1_1010_9475)"><path d="M323.43 359.35C328.51 343.5 328.42 327.07 328.42 326.32L327.52 297.08L300.01 299.54C300.01 299.54 304.36 340.33 304.81 343.79L304.52 368.65C304.24 370.82 302.2 377.81 301.52 379.89L299.81 385.15C296.2 394.59 292.21 408.94 292.21 408.94L295.16 409.85C301.86 411.91 308.96 408.1 310.94 401.37L323.43 359.36V359.35Z" fill="#AA704B" stroke="black" stroke-width="0.75" stroke-miterlimit="10"></path><path d="M221.35 393.31L218.85 415.73C213.66 415.15 209.92 410.47 210.5 405.28L211.95 392.26" fill="#EAB894"></path><path d="M221.35 393.31L218.85 415.73C213.66 415.15 209.92 410.47 210.5 405.28L211.95 392.26" stroke="black" stroke-width="0.75" stroke-miterlimit="10"></path><path d="M206.32 286.44L175.98 287.13L195.5 341.77L208.64 381.91C209.56 384.05 210.28 386.28 210.79 388.56L212.08 394.33C213.9 404.97 218.05 420.32 218.05 420.32L221.26 419.55C228.54 417.8 232.99 410.43 231.14 403.17L219.76 331.42L206.31 286.44H206.32Z" fill="#EAB894" stroke="black" stroke-width="0.75" stroke-miterlimit="10"></path><path d="M105.76 199.31C105.72 205.75 112.23 206.18 112.23 206.18L111.22 194.94C111.22 194.94 105.8 193.33 105.76 199.31Z" fill="#EAB894" stroke="black" stroke-width="0.75" stroke-miterlimit="10"></path><path d="M203.74 287.13C203.74 287.13 199.13 236.43 165.9 236.43H148.95C148.95 236.43 148.95 236.43 148.94 236.43H117.46H100.5C67.2598 236.43 62.6598 287.13 62.6598 287.13H90.6498L78.6798 360.57H183.26L175.98 287.13H203.75H203.74Z" fill="#9B80FF" stroke="black" stroke-width="0.75" stroke-miterlimit="10"></path><path d="M90.6198 287.13L92.9098 264.25" stroke="black" stroke-width="0.75" stroke-miterlimit="10"></path><path d="M175.98 287.13L173.69 264.25" stroke="black" stroke-width="0.75" stroke-miterlimit="10"></path><path d="M78.6798 360.58L92.9098 264.25L91.7298 360.58H78.6798Z" fill="black" stroke="black" stroke-width="0.75" stroke-miterlimit="10"></path><path d="M183.25 360.58H84.0198C84.0198 360.58 86.6098 459.42 85.9398 465.86C81.6098 507.37 91.9798 588.43 91.9798 588.43H121.81L133.64 418.18L145.47 588.43H175.3C175.3 588.43 185.67 507.36 181.34 465.86C180.67 459.43 183.26 360.58 183.26 360.58H183.25Z" fill="#5CBDE8" stroke="black" stroke-width="0.75" stroke-miterlimit="10"></path><path d="M133.63 418.18V370.79" stroke="black" stroke-width="0.75" stroke-miterlimit="10"></path><path d="M148.94 236.43V219.06H117.46V236.43L122.96 240.37C129.08 244.76 137.32 244.76 143.44 240.37L148.94 236.43Z" fill="#EAB894" stroke="black" stroke-width="0.75" stroke-miterlimit="10"></path><path d="M117.46 222.56C119.59 225.25 129.05 235.48 148.94 234.71V219.07H134.74L117.45 221.85V222.57L117.46 222.56Z" fill="black" stroke="black" stroke-width="0.75" stroke-miterlimit="10"></path><path d="M133.2 229.79C122.47 229.79 113.53 221.58 112.62 210.89L110.7 188.42C109.67 176.36 119.18 166.01 131.28 166.01H135.12C147.22 166.01 156.73 176.37 155.7 188.42L153.78 210.89C152.87 221.58 143.93 229.79 133.2 229.79Z" fill="#EAB894" stroke="black" stroke-width="0.75" stroke-miterlimit="10"></path><path d="M160.64 199.31C160.68 205.75 154.17 206.18 154.17 206.18L155.18 194.94C155.18 194.94 160.6 193.33 160.64 199.31Z" fill="#EAB894" stroke="black" stroke-width="0.75" stroke-miterlimit="10"></path><path d="M138.39 166.01H128.02C115.92 166.01 109.68 176.37 110.71 188.42L111.18 193.95L111.66 194.31C113.72 192.26 116.83 184.47 120.64 181.27C127.66 175.38 138.74 175.38 145.76 181.27C149.58 184.47 152.68 192.26 154.74 194.31L155.23 193.88L155.7 188.42C156.73 176.36 150.49 166.01 138.39 166.01Z" fill="#1E1E1E" stroke="black" stroke-width="0.75" stroke-miterlimit="10"></path><path d="M124.2 211.4C124.2 211.4 127.5 217.82 133.45 217.82H132.95" stroke="black" stroke-width="0.75" stroke-miterlimit="10"></path><path d="M148.01 174.09H118.39V183.73H148.01V174.09Z" fill="#1E1E1E"></path><path d="M84.4897 394.78L99.5498 411.57C103.44 408.08 103.77 402.1 100.28 398.21L91.5397 388.46" fill="#EAB894"></path><path d="M84.4897 394.78L99.5498 411.57C103.44 408.08 103.77 402.1 100.28 398.21L91.5397 388.46" stroke="black" stroke-width="0.75" stroke-miterlimit="10"></path><path d="M131.01 211.58H132.43C133.42 211.58 134.42 211.27 135.16 210.6C135.94 209.89 136.13 209.18 136.13 209.18C136.82 207.12 134.34 204.02 134.34 204.02C132.72 201.52 134.02 198.94 134.02 198.94" stroke="black" stroke-width="0.75" stroke-miterlimit="10"></path><path d="M118.39 183.48H148.01" stroke="black" stroke-width="0.75" stroke-miterlimit="10"></path><path d="M327.51 297.07C327.51 297.07 319.89 249.04 290.21 249.03H274.24C274.24 249.03 274.24 249.03 274.23 249.03H244.57H228.59C197.28 249.03 192.94 296.79 192.94 296.79H219.31L213.07 359.96H306.56L300 299.53L327.51 297.07Z" fill="white" stroke="black" stroke-width="0.75" stroke-miterlimit="10"></path><path d="M219.3 296.79V359.96H196.08L219.3 296.79Z" fill="black" stroke="black" stroke-width="0.75" stroke-miterlimit="10"></path><path d="M219.3 296.79L221.45 275.24" stroke="black" stroke-width="0.75" stroke-miterlimit="10"></path><path d="M300.01 299.53L297.56 275.24" stroke="black" stroke-width="0.75" stroke-miterlimit="10"></path><path d="M306.56 359.96H213.07C213.07 359.96 215.51 459.1 214.88 465.16C210.8 504.26 224.67 590.89 224.67 590.89H248.66L259.8 420.25L270.94 590.89H294.93C294.93 590.89 308.8 504.26 304.72 465.16C304.09 459.1 306.53 359.96 306.53 359.96H306.56Z" fill="#F87C3D" stroke="black" stroke-width="0.75" stroke-miterlimit="10"></path><path d="M259.82 420.24V370.6" stroke="black" stroke-width="0.75" stroke-miterlimit="10"></path><path d="M306.33 359.96C306.47 354.01 306.56 350.34 306.56 350.34H213.07C213.07 350.34 213.16 354.01 213.3 359.96H306.32H306.33Z" fill="white" stroke="black" stroke-width="0.75" stroke-miterlimit="10"></path><path d="M231.42 360.06C231.42 360.06 224.66 381.83 213.52 381.83" stroke="black" stroke-width="0.75" stroke-miterlimit="10"></path><path d="M221.35 393.31L218.85 415.73C213.66 415.15 209.92 410.47 210.5 405.28L211.95 392.26" fill="#EAB894"></path><path d="M221.35 393.31L218.85 415.73C213.66 415.15 209.92 410.47 210.5 405.28L211.95 392.26" stroke="black" stroke-width="0.75" stroke-miterlimit="10"></path><path d="M230.49 398.9L219.76 331.42L210.2 306.55H192.96C196.93 312.15 201.08 317.63 204.83 323.39C210.29 331.8 202.31 339.74 194.51 339.41L195.5 341.77L208.64 381.91C209.56 384.05 210.28 386.28 210.79 388.56L212.08 394.33C213.9 404.97 217.4 416.05 217.4 416.05L220.61 415.28C227.89 413.53 232.34 406.16 230.49 398.9Z" fill="#EAB894" stroke="black" stroke-width="0.75" stroke-miterlimit="10"></path><path d="M219.02 388.78C218.16 386.75 217.5 384.65 217.03 382.5L214.06 357.65C213.15 353.43 213.18 349.06 214.15 344.86L219.3 296.79H192.95L189.45 342.05C189.45 342.05 190.68 358.99 197.27 374.81L211.4 411.12C213.96 417.7 221.4 420.91 227.94 418.27L230.82 417.11C230.82 417.11 225.6 403.07 221.18 393.91L219.01 388.78H219.02Z" fill="#AA704B" stroke="black" stroke-width="0.75" stroke-miterlimit="10"></path><path d="M288.15 360.06C288.15 360.06 294.91 381.83 306.05 381.83" stroke="black" stroke-width="0.75" stroke-miterlimit="10"></path><path d="M298.97 220.64C298.75 220.07 298.68 219.36 298.39 218.68C294.63 209.84 290.7 201.47 286.46 193.55C284.89 190.62 282.82 187.99 280.33 185.78L279.17 184.75C270.43 176.97 250.04 176.97 241.3 184.75L240.14 185.78C237.65 188 235.58 190.63 234.01 193.55C229.77 201.46 225.79 209.66 222.08 218.68C221.8 219.37 221.72 220.07 221.5 220.64C220.32 223.72 219.82 227.16 220.19 230.75C221.19 240.41 234.91 248.2 244.15 249.21C250.42 249.9 270.05 249.89 276.32 249.21C285.56 248.2 299.28 240.41 300.29 230.75C300.66 227.15 300.16 223.71 298.98 220.63L298.97 220.64Z" fill="#1E1E1E" stroke="black" stroke-width="0.75" stroke-miterlimit="10"></path><path d="M275.21 249.73V233.21H245.26V249.73L250.49 253.48C256.31 257.65 264.15 257.65 269.97 253.48L275.2 249.73H275.21Z" fill="#AA704B" stroke="black" stroke-width="0.75" stroke-miterlimit="10"></path><path d="M245.26 236.26C247.29 238.61 256.28 247.54 275.21 246.87V233.21H261.7L245.26 235.64V236.27V236.26Z" fill="black" stroke="black" stroke-width="0.75" stroke-miterlimit="10"></path><path d="M286.17 214.42C286.14 209.25 281.89 210.04 281.11 210.23L281.64 204.06C282.62 192.59 273.57 182.74 262.06 182.74H258.41C246.9 182.74 237.85 192.59 238.83 204.06L239.36 210.24C238.77 210.09 234.26 209.1 234.23 214.42C234.2 220.09 239.48 220.86 240.27 220.94L240.65 225.43C241.52 235.6 250.03 243.41 260.23 243.41C270.43 243.41 278.94 235.6 279.81 225.43L280.19 220.93C281.17 220.81 286.2 219.95 286.16 214.42H286.17Z" fill="#AA704B" stroke="black" stroke-width="0.75" stroke-miterlimit="10"></path><path d="M240.458 221.076L240.451 221.069C239.327 219.944 237.503 219.944 236.378 221.069L236.371 221.076C235.247 222.201 235.247 224.024 236.371 225.149L236.378 225.156C237.503 226.281 239.327 226.281 240.451 225.156L240.458 225.149C241.583 224.024 241.583 222.201 240.458 221.076Z" fill="#6CDA8A" stroke="black" stroke-width="0.75" stroke-miterlimit="10"></path><path d="M283.982 221.079L283.975 221.072C282.85 219.948 281.026 219.948 279.902 221.072L279.895 221.079C278.77 222.204 278.77 224.028 279.895 225.152L279.902 225.159C281.026 226.284 282.85 226.284 283.975 225.159L283.982 225.152C285.106 224.028 285.106 222.204 283.982 221.079Z" fill="#6CDA8A" stroke="black" stroke-width="0.75" stroke-miterlimit="10"></path><path d="M258.03 224.84H259.45C260.44 224.84 261.44 224.53 262.18 223.86C262.96 223.15 263.15 222.44 263.15 222.44C263.84 220.38 261.36 217.28 261.36 217.28C259.74 214.78 261.04 212.2 261.04 212.2" fill="#A9704B"></path><path d="M258.03 224.84H259.45C260.44 224.84 261.44 224.53 262.18 223.86C262.96 223.15 263.15 222.44 263.15 222.44C263.84 220.38 261.36 217.28 261.36 217.28C259.74 214.78 261.04 212.2 261.04 212.2" stroke="black" stroke-width="0.75" stroke-miterlimit="10"></path><path d="M254.36 230.47C257.4 233.22 262.02 233.22 265.06 230.47" stroke="black" stroke-width="0.75" stroke-miterlimit="10"></path><path d="M259.81 181.55H255.3C243.79 181.55 237.24 193.2 238.22 204.67L238.12 209.66L239.75 209.83C241.71 207.88 244.65 204.13 248.28 201.09C250.89 198.9 255.13 197.58 258.46 197.1L259.8 181.54L259.81 181.55Z" fill="#1E1E1E"></path><path d="M265.17 182.02H260.66L262 197.1C265.33 197.58 269.57 198.9 272.18 201.09C275.81 204.13 278.76 207.71 280.73 209.66H282.11L282.59 204.19C283.57 192.72 276.68 182.02 265.17 182.02Z" fill="#1E1E1E"></path><path d="M259.81 182.74L258.47 197.11C255.14 197.59 250.9 198.91 248.29 201.1C244.66 204.14 241.33 208.3 239.36 210.25L240.27 220.95" stroke="black" stroke-width="0.75" stroke-miterlimit="10"></path><path d="M260.65 182.74L261.99 197.11C265.32 197.59 269.56 198.91 272.17 201.1C275.8 204.14 279.13 208.3 281.1 210.25L280.2 220.94" stroke="black" stroke-width="0.75" stroke-miterlimit="10"></path><path d="M90.3298 384.78C89.4198 382.63 88.7198 380.4 88.2198 378.12L85.0598 351.74C84.1898 347.71 84.1298 343.56 84.8798 339.51C85.1298 338.19 85.2998 336.85 85.4498 335.51L90.6298 287.12H62.6598L58.9498 335.16C58.9498 335.16 60.2498 353.14 67.2498 369.93L82.2498 408.47C84.9698 415.45 92.8598 418.86 99.8098 416.06L102.87 414.82C102.87 414.82 97.3298 399.91 92.6298 390.2L90.3298 384.76V384.78Z" fill="#EAB894" stroke="black" stroke-width="0.75" stroke-miterlimit="10"></path></g></g></g><defs><clipPath id="clip0_1010_9475"><rect width="600" height="420" fill="white" transform="translate(10 70)"></rect></clipPath><clipPath id="clip1_1010_9475"><rect width="600" height="420" fill="white" transform="translate(10 70)"></rect></clipPath></defs></svg> 